<?xml version="1.0" standalone="no"?>
<!DOCTYPE svg PUBLIC "-//W3C//DTD SVG 20010904//EN"
 "http://www.w3.org/TR/2001/REC-SVG-20010904/DTD/svg10.dtd">
<svg version="1.0" xmlns="http://www.w3.org/2000/svg"
 width="1270.000000pt" height="1270.000000pt" viewBox="0 0 1270.000000 1270.000000"
 preserveAspectRatio="xMidYMid meet">
<metadata>
Created by potrace 1.11, written by Peter Selinger 2001-2013
</metadata>
<g transform="translate(0.000000,1270.000000) scale(0.100000,-0.100000)"
fill="#000000" stroke="none">
<path d="M5855 12455 c-1948 -138 -3634 -1013 -4695 -2435 -530 -711 -889
-1548 -1050 -2445 -112 -625 -132 -1329 -55 -1976 124 -1041 511 -2026 1129
-2874 387 -532 917 -1037 1486 -1418 404 -271 882 -515 1326 -677 607 -222
1225 -352 1904 -400 202 -15 740 -15 950 0 1384 95 2541 503 3530 1245 862
647 1535 1563 1913 2601 271 742 397 1484 397 2334 0 740 -89 1354 -292 2010
-478 1547 -1555 2764 -3048 3442 -743 338 -1559 533 -2475 593 -265 18 -771
17 -1020 0z m915 -3350 c1019 -156 1743 -973 1905 -2150 70 -517 35 -1094 -96
-1569 -97 -351 -279 -721 -483 -980 -369 -471 -888 -761 -1464 -817 -333 -33
-756 34 -1064 169 l-47 21 -98 -56 c-494 -281 -1187 -487 -1783 -528 l-95 -7
107 104 c318 307 605 703 818 1128 38 77 70 144 70 150 0 6 -26 50 -58 98
-406 607 -574 1437 -456 2257 175 1219 1036 2076 2204 2195 120 12 415 4 540
-15z"/>
</g>
</svg>
