<?xml version="1.0" encoding="UTF-8" standalone="no"?>
<svg width="1270px" height="1227px" viewBox="0 0 1270 1227" version="1.1" xmlns="http://www.w3.org/2000/svg" xmlns:xlink="http://www.w3.org/1999/xlink" xmlns:sketch="http://www.bohemiancoding.com/sketch/ns">
    <title>Untitled 5</title>
    <description>Created with Sketch (http://www.bohemiancoding.com/sketch)</description>
    <defs></defs>
    <g id="Page-1" stroke="none" stroke-width="1" fill="none" fill-rule="evenodd" sketch:type="MSPage">
        <g id="Group" sketch:type="MSLayerGroup" fill="#000000">
            <path d="M636.03574,0.758554422 C284.367591,0.758554422 0.492035887,243.687167 0.492035887,606.995248 C0.492035887,968.083779 282.257962,1226.62406 636.03574,1226.62406 C1013.13796,1226.62406 1269.46981,968.083779 1269.46981,606.995248 C1269.44611,243.687167 1011.00463,0.758554422 636.03574,0.758554422 L636.03574,0.758554422 Z M644.521666,890.075289 C612.734999,890.075289 581.280184,883.242065 551.958703,870.199085 C456.148332,927.658024 353.79574,929.204228 353.79574,929.204228 C353.79574,929.204228 413.552777,881.446473 454.465369,790.544636 C420.35574,743.884187 398.785369,682.011085 398.785369,606.97031 C398.785369,430.877616 519.55574,335.087779 644.545369,335.087779 C765.292036,335.087779 871.200184,430.902554 871.200184,606.97031 C871.17648,785.307493 765.268332,890.075289 644.521666,890.075289 L644.521666,890.075289 Z" id="Shape" sketch:type="MSShapeGroup"></path>
        </g>
    </g>
</svg>